<svg fill="none" height="27" viewBox="0 0 27 27" width="27" xmlns="http://www.w3.org/2000/svg">
	<path d="M3.60809 5.5994C6.18931 2.67922 9.66012 3.02355 12.9936 3.35696L12.9936 3.35696C16.3265 3.69098 19.4404 3.9981 21.716 1.27779C21.8983 0.994092 22.2546 0.876669 22.57 0.996752L22.5721 0.997556L22.5721 0.997603C22.63 1.02268 22.7491 1.08787 22.8438 1.22803C22.9392 1.36913 23.0064 1.5813 22.9676 1.89374M3.60809 5.5994L22.918 1.88758M3.60809 5.5994C3.23393 5.16872 2.64379 4.98938 2.09072 5.14307L2.09061 5.1431L2.03286 5.15929L2.03284 5.1593C1.24544 5.38045 0.785515 6.19708 1.00457 6.98506L1.00458 6.98513L6.12508 25.3086L6.12509 25.3087C6.27967 25.8605 6.78202 26.2426 7.35515 26.2442L7.35537 26.2442C7.47217 26.244 7.58842 26.228 7.70091 26.1965C7.70092 26.1965 7.70092 26.1965 7.70093 26.1965L8.13593 26.075V26.0751L8.14939 26.0713C8.47612 25.98 8.75319 25.7627 8.91963 25.4671C9.08606 25.1714 9.12822 24.8218 9.03682 24.4951L7.45776 18.8437C9.74685 15.9201 12.9282 16.2277 16.3307 16.5675L16.3388 16.5683C19.7329 16.9073 23.2713 17.2608 25.8694 14.1538L25.8695 14.1538L25.8712 14.1515L25.8719 14.1506C26.134 13.8235 26.2419 13.3989 26.1678 12.9863L26.1676 12.9855C26.1268 12.7775 25.9895 12.6012 25.7978 12.5108C24.2315 11.7315 22.7819 10.7372 21.491 9.55667M3.60809 5.5994L21.4349 9.57312M22.9676 1.89374L22.918 1.88758M22.9676 1.89374C22.9676 1.89373 22.9676 1.89371 22.9676 1.8937L22.918 1.88758M22.9676 1.89374C22.6488 4.47845 22.1555 7.03861 21.491 9.55667M22.918 1.88758C22.5982 4.48006 22.1028 7.04782 21.4349 9.57312M21.491 9.55667C21.4835 9.54988 21.4761 9.54308 21.4687 9.53628L21.4349 9.57312M21.491 9.55667C21.4884 9.56642 21.4858 9.57616 21.4832 9.58591L21.4349 9.57312M8.10127 25.0066L8.10145 25.0063C8.14601 24.9277 8.15731 24.8345 8.13284 24.7475L8.13282 24.7475L5.68063 15.9719L3.05813 6.58744L3.05437 6.57399H3.05461L3.01274 6.42412C2.94656 6.18962 2.73278 6.02754 2.48912 6.02713C2.48911 6.02713 2.4891 6.02713 2.48909 6.02713L8.10127 25.0066ZM8.10127 25.0066C8.05738 25.0854 7.98372 25.1433 7.89678 25.1673L7.89664 25.1673M8.10127 25.0066L7.89664 25.1673M7.89664 25.1673L7.44859 25.2924M7.89664 25.1673L7.44859 25.2924M12.9055 4.24146L12.9005 4.29121C9.49536 3.95124 6.31431 3.6363 4.02517 6.55935L4.88415 9.63331L7.15108 17.745C9.71779 14.9628 13.1341 15.3043 16.4154 15.6323L16.4242 15.6332C19.7564 15.9665 22.8711 16.2742 25.1472 13.5535C25.2034 13.4761 25.2393 13.3861 25.2521 13.2917C23.6491 12.4722 22.1637 11.4407 20.8358 10.225M12.9055 4.24146L20.8693 10.1879M12.9055 4.24146L12.9005 4.29121L12.9135 4.2925C16.0965 4.60999 19.4096 4.94046 21.9531 2.40777M12.9055 4.24146L21.9531 2.40777M20.8358 10.225C20.8357 10.2249 20.8356 10.2248 20.8355 10.2248L20.8693 10.1879M20.8358 10.225C20.8358 10.2251 20.8359 10.2251 20.836 10.2252L20.8693 10.1879M20.8358 10.225C20.5885 10.0041 20.488 9.66199 20.5765 9.34245M20.8693 10.1879C20.636 9.97964 20.5412 9.65697 20.6248 9.35562M20.5765 9.34245C20.5765 9.34257 20.5765 9.34269 20.5764 9.34281L20.6248 9.35562M20.5765 9.34245C21.1807 7.06207 21.6404 4.74592 21.9531 2.40777M20.5765 9.34245C20.5766 9.34238 20.5766 9.34232 20.5766 9.34225L20.6248 9.35562M20.6248 9.35562L21.9531 2.40777M7.44859 25.2924L7.44854 25.2924C7.26756 25.3427 7.08002 25.2371 7.02929 25.0562L7.44859 25.2924ZM7.02928 25.0562L1.90858 6.73264C1.90857 6.73263 1.90857 6.73262 1.90857 6.7326C1.82854 6.4436 1.99728 6.1443 2.28598 6.06318L7.02928 25.0562Z"  stroke="white" stroke-width="0.1"/>
</svg>