<svg width="30" height="30" viewBox="0 0 30 30" fill="none" xmlns="http://www.w3.org/2000/svg">
<path d="M29.1758 13.486C27.313 12.5627 25.5886 11.3898 24.0656 10.0048C24.846 7.06012 25.4376 4.05307 25.8152 1.03353C25.9033 0.322317 25.5131 0.0977236 25.3872 0.0478139C25.0348 -0.0769603 24.6446 0.0478139 24.4558 0.35975C21.7497 3.56645 18.0492 3.2046 14.1221 2.80533C10.1699 2.41853 6.0918 2.01925 3.07099 5.45054C2.64304 4.92649 1.95078 4.70189 1.29627 4.88905L1.23333 4.91401C0.339676 5.16356 -0.188965 6.08689 0.0627693 6.97278L6.0918 28.3591C6.26802 28.983 6.83442 29.4072 7.48893 29.4072C7.62739 29.4072 7.75325 29.3947 7.87912 29.3573L8.40776 29.2076C8.77278 29.1077 9.08745 28.8582 9.27625 28.5338C9.46505 28.2094 9.51539 27.8101 9.4147 27.4482L7.55187 20.8227C10.2706 17.354 14.0592 17.7283 18.0744 18.1151C22.0769 18.5144 26.218 18.9262 29.264 15.3202C29.566 14.9459 29.6793 14.4717 29.6038 14.0101C29.5409 13.773 29.3898 13.5858 29.1758 13.486ZM8.40776 28.0472C8.34483 28.147 8.24413 28.2343 8.13085 28.2593L7.60221 28.409C7.36306 28.4714 7.09874 28.3341 7.03581 28.0971L1.00677 6.69828C0.906079 6.32396 1.12005 5.94964 1.49765 5.84982L1.56058 5.83734C1.62352 5.82486 1.68645 5.81238 1.74939 5.81238C2.06405 5.81238 2.34096 6.0245 2.42907 6.32396L2.47942 6.51112L5.56317 17.4663L8.44552 27.7103C8.48328 27.8226 8.4707 27.9473 8.40776 28.0472Z" fill="white"/>
</svg>
