<svg width="30" height="30" viewBox="0 0 30 30" fill="none" xmlns="http://www.w3.org/2000/svg">
<path d="M29.1758 13.486C27.313 12.5627 25.5886 11.3898 24.0656 10.0048C24.846 7.06013 25.4376 4.05307 25.8152 1.03353C25.9033 0.322317 25.5131 0.0977236 25.3872 0.0478139C25.0348 -0.0769604 24.6446 0.0478139 24.4558 0.35975C21.7497 3.56645 18.0492 3.2046 14.1221 2.80533C10.1699 2.41853 6.0918 2.01925 3.07099 5.45054C2.64304 4.92649 1.95078 4.7019 1.29627 4.88906L1.23333 4.91401C0.339676 5.16356 -0.188965 6.08689 0.0627693 6.97279L6.0918 28.3716C6.26802 28.9954 6.83442 29.4197 7.48893 29.4197C7.62739 29.4197 7.75325 29.4072 7.87912 29.3698L8.40776 29.22C8.77278 29.1202 9.08745 28.8707 9.27625 28.5463C9.46505 28.2094 9.51539 27.8226 9.4147 27.4607L7.55187 20.8352C10.2706 17.3665 14.0592 17.7408 18.0744 18.1276C22.0769 18.5269 26.218 18.9386 29.264 15.3327C29.566 14.9583 29.6793 14.4842 29.6038 14.0225C29.5409 13.7855 29.3898 13.5858 29.1758 13.486ZM8.42035 28.0596C8.35741 28.1595 8.25673 28.2468 8.14344 28.2718L7.6148 28.4215C7.37565 28.4839 7.11133 28.3466 7.0484 28.1096L1.00677 6.71076C0.906079 6.33644 1.12005 5.96212 1.49765 5.8623L1.56058 5.84982C1.62352 5.83734 1.68645 5.82486 1.74939 5.82486C2.06405 5.82486 2.34096 6.03698 2.42907 6.33644L2.47942 6.5236L5.56317 17.4788L8.44552 27.7228C8.49587 27.8226 8.47069 27.9473 8.42035 28.0596ZM28.4836 14.6963C25.7774 17.903 22.0769 17.5412 18.1625 17.1419C14.2606 16.7551 10.2328 16.3558 7.21202 19.6623L4.51846 10.0921L3.49894 6.47369C6.21767 3.00497 10.0063 3.37929 14.0214 3.77857C17.8352 4.15289 21.7623 4.53969 24.7579 1.47024C24.3929 4.26518 23.8391 7.0227 23.109 9.74278C23.0084 10.0921 23.1216 10.4665 23.3985 10.716C24.9719 12.1384 26.7214 13.3488 28.622 14.3095C28.622 14.4468 28.5717 14.584 28.4836 14.6963Z" fill="white"/>
</svg>
