<svg width="15" height="16" viewBox="0 0 15 16" fill="none" xmlns="http://www.w3.org/2000/svg">
<path d="M6.34556 3.45904L6.35261 3.43105C6.41652 3.22426 6.44462 3.00808 6.43565 2.79189C6.39654 2.36337 6.12596 1.99074 5.73067 1.82072C5.4385 1.69141 5.10573 1.68938 4.81207 1.81516C4.50056 1.95045 4.25798 2.20735 4.14086 2.52623C4.12825 2.56053 1.74904 8.96936 1.52067 9.58329L0.76803 10.2837C0.617245 10.4239 0.528441 10.6184 0.521068 10.8241C0.513694 11.0299 0.588285 11.2302 0.728597 11.3808L3.31427 14.1589L3.86825 14.7525C4.00781 14.9038 4.2022 14.9929 4.40802 15H4.43644C4.63243 15.0003 4.82115 14.9259 4.96424 14.792L5.4711 14.3202C5.48178 14.3085 5.49781 14.3032 5.51331 14.3064C6.30057 14.6789 7.23552 14.5324 7.87115 13.9369L11.6407 10.4284L13.2281 8.95141L14.1205 8.12033C14.349 7.90692 14.4834 7.61155 14.494 7.29908C14.5182 6.7077 14.0995 6.19037 13.5161 6.09045L13.6209 5.99289C13.8495 5.77959 13.984 5.48411 13.9944 5.17164C14.0183 4.58015 13.5994 4.06293 13.0159 3.96333L13.3194 3.68089C13.7823 3.24649 13.8215 2.52484 13.4085 2.04278C13.2026 1.80693 12.9089 1.66609 12.5961 1.65294C12.2547 1.63349 11.92 1.75404 11.6693 1.98668L11.603 2.04855C11.5802 1.80629 11.4823 1.57728 11.3229 1.39326C11.1173 1.15688 10.8237 1.01539 10.5108 1.00204C10.1694 0.982587 9.83477 1.10313 9.58417 1.33588L6.19008 4.49487C6.178 4.50588 6.16026 4.5078 6.14615 4.49968C6.13194 4.49167 6.12467 4.47532 6.12799 4.45939L6.34556 3.45904ZM1.08606 10.6259L1.70843 10.0462L3.94947 12.4545C4.00236 12.511 4.0434 12.5776 4.0699 12.6504C4.09534 12.7207 4.10709 12.7953 4.10453 12.87C4.09918 13.0237 4.03293 13.1688 3.92029 13.2734L3.49679 13.6693L1.07013 11.0625C0.954186 10.9375 0.961346 10.7422 1.08606 10.6259ZM6.50832 4.83641L7.29056 4.10877L7.50065 4.33479C7.58924 4.42573 7.73425 4.42937 7.82712 4.34281C7.91998 4.25625 7.92672 4.11134 7.84219 4.01655L7.63209 3.79086L9.07571 2.44662L9.28581 2.67263C9.3744 2.76358 9.51941 2.76721 9.61228 2.68065C9.70525 2.59409 9.71187 2.44918 9.62734 2.35439L9.41725 2.1287L9.90188 1.67741C10.0594 1.53026 10.2704 1.45439 10.4856 1.46732C10.6716 1.47416 10.8468 1.55709 10.97 1.69676C11.0892 1.83333 11.1511 2.01083 11.1425 2.19196C11.1374 2.38058 11.0565 2.55915 10.9181 2.68728L7.04734 6.28965C6.95297 6.37749 6.94763 6.52517 7.03558 6.61964C7.12342 6.714 7.27111 6.71924 7.36547 6.6314L11.2335 3.03052V3.02935L11.9873 2.32757C12.1449 2.18074 12.3559 2.10487 12.5709 2.11748C12.7575 2.1241 12.9332 2.20714 13.0567 2.34713C13.3057 2.63908 13.282 3.07498 13.0027 3.33818L12.0104 4.26148L8.34113 7.67813C8.25415 7.76725 8.25244 7.90884 8.33707 8C8.42171 8.09115 8.56309 8.09992 8.65831 8.01998L12.3279 4.60387C12.617 4.3349 13.0693 4.35103 13.3385 4.63989C13.6053 4.92981 13.5893 5.38045 13.3025 5.65071L12.5104 6.38818L12.5088 6.38956L9.63301 9.06714C9.53865 9.1552 9.53362 9.30309 9.62168 9.39735C9.70974 9.49171 9.85753 9.49673 9.95189 9.40868L12.8279 6.73057C13.1172 6.46223 13.5691 6.47837 13.8385 6.76679C14.1051 7.05682 14.0891 7.50725 13.8026 7.77762L13.0801 8.44968L12.8699 8.22377C12.7821 8.1293 12.6343 8.12396 12.5399 8.2118C12.4454 8.29965 12.4401 8.44744 12.5279 8.54191L12.738 8.76792L11.4926 9.92718L11.2826 9.70127C11.1946 9.6068 11.0468 9.60146 10.9525 9.6893C10.858 9.77714 10.8526 9.92493 10.9405 10.0194L11.1506 10.2454L7.55344 13.5954C7.05706 14.0607 6.32665 14.1751 5.71175 13.8839C5.52378 13.7977 5.30225 13.8352 5.15318 13.9785L4.64632 14.4505C4.58766 14.5083 4.50697 14.5383 4.4248 14.5329C4.34294 14.5301 4.26557 14.4947 4.21 14.4346L3.81482 14.0107L4.23939 13.6155C4.66161 13.221 4.68512 12.5594 4.29196 12.136L1.98927 9.66269C4.53337 2.81081 4.57889 2.68845 4.57889 2.68845C4.65113 2.49 4.80138 2.32971 4.99481 2.24497C5.17081 2.17038 5.36979 2.17187 5.54462 2.24913C5.78282 2.35098 5.94621 2.57485 5.97068 2.83272C5.97378 2.99675 5.95017 3.16015 5.90058 3.31649L5.67211 4.36022C5.6253 4.57566 5.72383 4.79666 5.91554 4.90587C6.10715 5.01498 6.34749 4.98709 6.50896 4.83684L6.50832 4.83641Z" fill="white" stroke="white" stroke-width="0.3"/>
<path d="M5.08636 6.95263C4.87894 6.94451 4.67665 7.01835 4.5233 7.15824L3.72952 7.89709C3.41609 8.18947 3.39867 8.68051 3.69051 8.99437L6.6455 12.1692C6.93777 12.4829 7.42892 12.5004 7.74278 12.2082L8.53645 11.4693C8.84935 11.1773 8.86677 10.6871 8.57546 10.3736L5.62047 7.19863C5.4824 7.0487 5.29005 6.96011 5.08636 6.95263ZM8.2958 10.7928C8.30969 10.8306 8.3161 10.8707 8.31471 10.911C8.31321 10.9513 8.30392 10.9909 8.28735 11.0277C8.27068 11.0647 8.24696 11.0981 8.21736 11.126L7.42358 11.8648C7.36298 11.9193 7.2838 11.9486 7.20226 11.9468C7.1203 11.944 7.04282 11.9086 6.98704 11.8485L4.03237 8.67356C3.91642 8.54864 3.92326 8.35351 4.04776 8.23703L4.84143 7.49838C4.8705 7.47178 4.90448 7.45104 4.94156 7.43769C4.95097 7.43427 4.96165 7.43469 4.97127 7.43213C5.00216 7.42251 5.03432 7.4176 5.0667 7.41738C5.14728 7.41973 5.22347 7.45468 5.27797 7.51409L8.23296 10.6889C8.26064 10.7189 8.28201 10.7543 8.2958 10.7928Z" fill="white" stroke="white" stroke-width="0.3"/>
</svg>
