<svg width="18" height="17" viewBox="0 0 18 17" fill="none" xmlns="http://www.w3.org/2000/svg">
<path d="M16.8699 6.59804C16.785 6.53864 16.694 6.47545 16.5977 6.4085C15.8181 5.86681 14.7505 5.12498 13.6539 4.17663C13.2757 3.84962 12.9335 3.50536 12.6368 3.15335C11.7535 2.10558 10.6228 1.42263 9.27635 1.12354C7.94217 0.827358 6.47225 1.06433 4.90719 1.82812C3.63593 2.44853 2.574 3.28513 1.90705 3.87777C1.44316 4.28993 1.16129 4.88365 1.13394 5.50669L1.0003 8.54471C0.994823 8.66866 1.0642 8.78351 1.17569 8.83531C6.85674 11.4748 11.5387 15.8735 11.5854 15.9176C11.6417 15.971 11.7157 16 11.7917 16C11.8091 16 12.5414 15.8711 12.5414 15.8711C13.5318 15.6944 14.2507 14.8287 14.2507 13.8126V12.2762C14.2507 12.159 14.1842 12.0521 14.0796 12.0014C13.975 11.9505 13.8508 11.9649 13.7603 12.0381L12.4545 13.0936L9.20688 10.8466C9.0262 10.7217 8.93514 10.5003 8.97489 10.2827L9.14433 9.35542L13.2483 8.90409C13.4015 8.88725 13.5175 8.75654 13.5175 8.60092V7.75015L13.8594 7.70699C14.0104 7.68789 14.1237 7.55817 14.1237 7.40438V6.74728C15.2239 7.12035 16.1051 7.25556 16.7468 7.14977C16.8683 7.12969 16.9655 7.03717 16.9926 6.91589C17.0197 6.79452 16.9712 6.66884 16.8699 6.59804ZM12.9139 8.32735L9.25875 8.72933L9.26762 8.68082C9.31169 8.43958 9.50314 8.25712 9.74409 8.22667L12.9139 7.82634V8.32735H12.9139ZM13.933 6.03266C13.9286 6.03092 13.9243 6.02928 13.9198 6.02778C13.6907 5.9423 13.4493 5.8457 13.2022 5.74066C13.1991 5.73934 13.196 5.73807 13.1929 5.73686C13.1668 5.72682 12.5469 5.48905 11.8469 5.35581C10.8107 5.15852 10.1326 5.29589 9.83144 5.76407C9.74061 5.90528 9.78022 6.09412 9.92004 6.18593C10.0597 6.27765 10.2467 6.23763 10.3376 6.09646C10.6208 5.65602 12.0758 5.96013 12.9729 6.30482C13.1592 6.38401 13.3425 6.45851 13.5201 6.52738V7.13513L9.66915 7.62146C9.16597 7.68503 8.76602 8.06627 8.67399 8.57014L8.38126 10.172C8.29823 10.6265 8.48843 11.0888 8.86577 11.3499L12.2979 13.7244C12.4075 13.8002 12.5533 13.7948 12.6569 13.7109L13.6469 12.9106V13.8126C13.6469 14.5322 13.1378 15.1453 12.4364 15.2704L11.8857 15.3686C11.1425 14.6878 6.81123 10.8262 1.61227 8.36756L1.73695 5.53376C1.7435 5.38564 1.76983 5.23988 1.81367 5.10007L6.75621 7.78684C6.80171 7.81156 6.85066 7.82329 6.89895 7.82329C7.00645 7.82329 7.11055 7.76516 7.16498 7.66279C7.24396 7.51444 7.18903 7.3295 7.0422 7.24975L2.09576 4.56087C2.15859 4.47994 2.22852 4.40426 2.30565 4.33572C2.47765 4.18287 2.64741 4.03874 2.81505 3.90198L6.36861 5.71086C6.41217 5.73305 6.45855 5.74352 6.5042 5.74352C6.61458 5.74352 6.72091 5.6821 6.77399 5.57575C6.84898 5.42533 6.78913 5.24199 6.64026 5.16622L3.34552 3.48908C6.18756 1.38458 8.30887 1.53316 9.1467 1.71923C10.3616 1.98909 11.3812 2.60462 12.1772 3.5488C12.4945 3.92511 12.8593 4.29223 13.2614 4.63997C14.1324 5.39324 15.0075 6.0343 15.7045 6.52588C15.2038 6.44946 14.6069 6.2838 13.933 6.03266Z" fill="#9C9C9C" stroke="#9C9C9C" stroke-width="0.3"/>
</svg>
