<svg width="18" height="17" viewBox="0 0 18 17" fill="none" xmlns="http://www.w3.org/2000/svg">
<path d="M16.8699 6.59805C16.785 6.53866 16.694 6.47546 16.5977 6.40852C15.8181 5.86683 14.7505 5.125 13.6539 4.17664C13.2757 3.84964 12.9335 3.50537 12.6368 3.15336C11.7535 2.10559 10.6228 1.42264 9.27635 1.12355C7.94217 0.827374 6.47225 1.06435 4.90719 1.82813C3.63593 2.44855 2.574 3.28515 1.90705 3.87779C1.44316 4.28994 1.16129 4.88366 1.13394 5.5067L1.0003 8.54473C0.994823 8.66868 1.0642 8.78353 1.17569 8.83532C6.85674 11.4748 11.5387 15.8735 11.5854 15.9176C11.6417 15.971 11.7157 16 11.7917 16C11.8091 16 12.5414 15.8711 12.5414 15.8711C13.5318 15.6945 14.2507 14.8288 14.2507 13.8126V12.2762C14.2507 12.159 14.1842 12.0521 14.0796 12.0014C13.975 11.9505 13.8508 11.9649 13.7603 12.0381L12.4545 13.0936L9.20688 10.8466C9.0262 10.7217 8.93514 10.5003 8.97489 10.2827L9.14433 9.35543L13.2483 8.9041C13.4015 8.88726 13.5175 8.75655 13.5175 8.60093V7.75016L13.8594 7.707C14.0104 7.68791 14.1237 7.55819 14.1237 7.4044V6.74729C15.2239 7.12037 16.1051 7.25558 16.7468 7.14978C16.8683 7.1297 16.9655 7.03719 16.9926 6.91591C17.0197 6.79454 16.9712 6.66885 16.8699 6.59805ZM12.9139 8.32737L9.25875 8.72934L9.26762 8.68083C9.31169 8.43959 9.50314 8.25714 9.74409 8.22669L12.9139 7.82636V8.32737H12.9139ZM13.933 6.03267C13.9286 6.03094 13.9243 6.0293 13.9198 6.02779C13.6907 5.94231 13.4493 5.84571 13.2022 5.74067C13.1991 5.73936 13.196 5.73809 13.1929 5.73687C13.1668 5.72683 12.5469 5.48906 11.8469 5.35582C10.8107 5.15854 10.1326 5.29591 9.83144 5.76408C9.74061 5.9053 9.78022 6.09413 9.92004 6.18595C10.0597 6.27767 10.2467 6.23765 10.3376 6.09648C10.6208 5.65603 12.0758 5.96014 12.9729 6.30483C13.1592 6.38403 13.3425 6.45853 13.5201 6.5274V7.13515L9.66915 7.62147C9.16597 7.68505 8.76602 8.06628 8.67399 8.57016L8.38126 10.172C8.29823 10.6265 8.48843 11.0888 8.86577 11.3499L12.2979 13.7244C12.4075 13.8002 12.5533 13.7948 12.6569 13.7109L13.6469 12.9107V13.8126C13.6469 14.5323 13.1378 15.1454 12.4364 15.2704L11.8857 15.3686C11.1425 14.6878 6.81123 10.8262 1.61227 8.36758L1.73695 5.53377C1.7435 5.38566 1.76983 5.23989 1.81367 5.10008L6.75621 7.78685C6.80171 7.81158 6.85066 7.82331 6.89895 7.82331C7.00645 7.82331 7.11055 7.76518 7.16498 7.66281C7.24396 7.51446 7.18903 7.32952 7.0422 7.24976L2.09576 4.56088C2.15859 4.47995 2.22852 4.40428 2.30565 4.33573C2.47765 4.18288 2.64741 4.03876 2.81505 3.902L6.36861 5.71088C6.41217 5.73307 6.45855 5.74353 6.5042 5.74353C6.61458 5.74353 6.72091 5.68212 6.77399 5.57576C6.84898 5.42535 6.78913 5.242 6.64026 5.16623L3.34552 3.48909C6.18756 1.38459 8.30887 1.53317 9.1467 1.71924C10.3616 1.9891 11.3812 2.60464 12.1772 3.54881C12.4945 3.92513 12.8593 4.29224 13.2614 4.63998C14.1324 5.39326 15.0075 6.03432 15.7045 6.5259C15.2038 6.44947 14.6069 6.28381 13.933 6.03267Z" fill="white" stroke="white" stroke-width="0.3"/>
</svg>
