<svg width="14" height="15" viewBox="0 0 14 15" fill="none" xmlns="http://www.w3.org/2000/svg">
<path d="M4.84895 3.15734L4.84898 3.15737C5.01906 3.32745 5.01906 3.60274 4.84898 3.77285L4.55889 4.06291L4.54121 4.08059L4.52354 4.06291L2.20451 1.74388L2.18675 1.72613L2.20459 1.70845L2.4931 1.42246C2.6628 1.25275 2.93881 1.25275 3.10901 1.42287C3.10902 1.42287 3.10903 1.42288 3.10904 1.42289M4.84895 3.15734L3.09136 1.44057L3.10904 1.42289M4.84895 3.15734L3.10904 1.42289M4.84895 3.15734L3.10904 1.42289M8.03158 9.8944L8.03158 9.89441C8.40472 10.2674 9.01205 10.2675 9.38532 9.89427L10.1764 9.10319C10.6464 8.63315 11.4114 8.63315 11.8815 9.10319L13.6219 10.8436C14.0919 11.3137 14.0919 12.0786 13.6219 12.5486L12.989 13.1815C11.2642 14.9063 8.47294 14.9061 6.74834 13.1815L1.31535 7.74566L1.31534 7.74565C-0.405116 6.0252 -0.405128 3.22565 1.31539 1.50513C1.3154 1.50511 1.31541 1.5051 1.31542 1.50509L1.94951 0.876506L1.94958 0.876428C2.41835 0.407665 3.18327 0.407631 3.65335 0.877687L3.65338 0.877714L5.39329 2.61216C5.8683 3.08712 5.8618 3.84963 5.39375 4.31764L4.93433 4.77707L4.60267 5.10873C4.2285 5.4829 4.22855 6.08845 4.60266 6.46257C4.60266 6.46257 4.60267 6.46257 4.60267 6.46257L8.03158 9.8944ZM7.29321 12.6368L7.3109 12.6191L7.29322 12.6368C8.6504 13.994 10.7623 14.0567 12.1942 12.8646L12.2152 12.8471L12.1959 12.8277L9.88352 10.5154L9.86692 10.4988L9.84931 10.5143C9.16955 11.114 8.13505 11.0875 7.48668 10.439L7.48657 10.4389L7.48652 10.4389L7.48641 10.4388L4.05777 7.00727L4.05776 7.00726C3.40869 6.35819 3.38372 5.32364 3.98263 4.64471L3.99816 4.6271L3.98156 4.6105L1.66925 2.2982L1.64987 2.27882L1.63235 2.29989C0.438194 3.73633 0.51227 5.85298 1.8602 7.20091L7.29321 12.6368ZM12.7517 12.2939L12.7693 12.3116L12.787 12.2939L13.0771 12.0038C13.2468 11.8342 13.2468 11.5581 13.0771 11.3884L11.3367 9.64796C11.167 9.47823 10.8909 9.47827 10.7212 9.64796L10.7389 9.66564L10.7212 9.64796L10.4311 9.93803L10.4135 9.9557L10.4311 9.97338L12.7517 12.2939Z" fill="#9C9C9C" stroke="#DEDEDE" stroke-width="0.05"/>
</svg>
