<svg width="27" height="27" viewBox="0 0 27 27" fill="none" xmlns="http://www.w3.org/2000/svg">
<path d="M22.9676 1.89374C23.0064 1.5813 22.9392 1.36913 22.8438 1.22803C22.7491 1.08787 22.63 1.02268 22.5721 0.997602L22.5721 0.997556L22.57 0.996752C22.2546 0.876669 21.8983 0.994092 21.716 1.27779C19.4404 3.9981 16.3265 3.69098 12.9936 3.35696L12.9936 3.35696C9.66012 3.02355 6.18931 2.67922 3.60809 5.5994L22.918 1.88758M22.9676 1.89374L22.918 1.88758M22.9676 1.89374C22.9676 1.89373 22.9676 1.89371 22.9676 1.8937L22.918 1.88758M22.9676 1.89374C22.6488 4.47845 22.1555 7.03861 21.491 9.55667M22.918 1.88758C22.5982 4.48006 22.1028 7.04782 21.4349 9.57312M21.491 9.55667C21.4835 9.54988 21.4761 9.54308 21.4687 9.53628L21.4349 9.57312M21.491 9.55667C21.4884 9.56642 21.4858 9.57616 21.4832 9.58591L21.4349 9.57312M21.491 9.55667C22.7819 10.7372 24.2315 11.7315 25.7978 12.5108C25.9895 12.6012 26.1268 12.7775 26.1676 12.9855L26.1678 12.9863C26.2419 13.3989 26.134 13.8235 25.8719 14.1506L25.8712 14.1515L25.8695 14.1538L25.8694 14.1538C23.2713 17.2608 19.7329 16.9073 16.3388 16.5683L16.3307 16.5675C12.9282 16.2277 9.74685 15.9201 7.45776 18.8437L9.03682 24.4951C9.12822 24.8218 9.08606 25.1714 8.91963 25.4671C8.75318 25.7627 8.47567 25.9801 8.14897 26.0713L8.13551 26.0232L8.14896 26.0713L7.70093 26.1965L7.70091 26.1965L7.68746 26.1483L21.4349 9.57312M8.10127 25.0066L8.10145 25.0063C8.14601 24.9277 8.15731 24.8345 8.13284 24.7475L8.13282 24.7475L5.68063 15.9719L3.05813 6.58656L3.01274 6.42412C2.94656 6.18962 2.73278 6.02754 2.48912 6.02713C2.48911 6.02713 2.4891 6.02713 2.48909 6.02713L8.10127 25.0066ZM8.10127 25.0066C8.05738 25.0854 7.98372 25.1433 7.89678 25.1673L7.89664 25.1673M8.10127 25.0066L7.89664 25.1673M7.89664 25.1673L7.44859 25.2924M7.89664 25.1673L7.44859 25.2924M7.44859 25.2924L7.44854 25.2924C7.26756 25.3427 7.08002 25.2371 7.02929 25.0562L7.44859 25.2924ZM7.02928 25.0562L1.90858 6.73264C1.90857 6.73263 1.90857 6.73262 1.90857 6.7326C1.82854 6.4436 1.99728 6.1443 2.28598 6.06318L7.02928 25.0562Z" fill="green" stroke="red" stroke-width="0.1"/>
</svg>
