<svg width="9" height="14" viewBox="0 0 9 14" fill="none" xmlns="http://www.w3.org/2000/svg">
<path d="M8.44878 5.4735C8.37808 5.3355 8.24468 5.24999 8.09996 5.24999H5.33475L5.69863 0.473928C5.71385 0.273991 5.60273 0.0883821 5.4291 0.0236596C5.25625 -0.0415004 5.06388 0.0313705 4.96425 0.199917L0.564291 7.63732C0.484591 7.7719 0.478541 7.9434 0.548666 8.08417C0.618791 8.22493 0.753541 8.31249 0.900017 8.31249H3.66797L3.30117 13.5289C3.28692 13.7306 3.40097 13.9167 3.57695 13.9788C3.61757 13.9931 3.65897 14 3.7 14C3.83632 14 3.96717 13.9233 4.0414 13.7907L8.44136 5.91573C8.51676 5.78074 8.51968 5.61151 8.44878 5.4735ZM4.22637 11.7813L4.49882 7.90859C4.50742 7.78705 4.46915 7.66718 4.39355 7.57765C4.31777 7.48838 4.21132 7.43749 4.1 7.43749H1.63537L4.76875 2.14083L4.50137 5.65126C4.4922 5.77324 4.5299 5.89367 4.60567 5.98382C4.68145 6.07378 4.78807 6.12499 4.9 6.12499H7.3867L4.22637 11.7813Z" fill="#9C9C9C"/>
</svg>
